<?xml version="1.0" standalone="no"?>
<!DOCTYPE svg PUBLIC "-//W3C//DTD SVG 20010904//EN"
 "http://www.w3.org/TR/2001/REC-SVG-20010904/DTD/svg10.dtd">
<svg version="1.0" xmlns="http://www.w3.org/2000/svg"
 width="80.000000pt" height="80.000000pt" viewBox="0 0 300.000000 299.000000"
 preserveAspectRatio="xMidYMid meet">

<g transform="translate(0.000000,299.000000) scale(0.100000,-0.100000)"
fill="#ffffff" stroke="none">
<path d="M1360 2969 c-675 -65 -1230 -590 -1325 -1254 -115 -801 421 -1544
1213 -1682 131 -23 384 -23 509 0 559 104 997 492 1164 1034 80 260 80 597 0
853 -107 345 -316 624 -612 817 -205 134 -424 208 -684 233 -121 11 -141 11
-265 -1z m-228 -744 l136 -274 36 60 36 60 0 215 0 214 75 0 75 0 0 -640 0
-640 -75 0 -75 0 0 303 -1 302 -34 -60 c-19 -33 -94 -169 -167 -302 l-133
-243 -72 0 c-40 0 -73 2 -73 3 0 2 71 132 157 288 86 156 156 291 156 299 -1
8 -46 107 -101 220 -155 321 -222 460 -222 465 0 3 33 5 73 5 l73 0 136 -275z
m558 -27 c0 -166 3 -298 8 -294 4 4 79 139 168 299 l160 292 73 3 c65 3 73 1
67 -14 -3 -9 -74 -138 -156 -287 -83 -148 -150 -274 -150 -280 0 -6 72 -160
160 -344 88 -183 160 -338 160 -343 0 -6 -31 -10 -70 -10 l-71 0 -134 272
c-74 149 -136 272 -138 274 -2 2 -20 -25 -40 -60 l-37 -63 0 -211 0 -212 -70
0 -70 0 0 640 0 640 70 0 70 0 0 -302z m250 -1137 c0 -22 -53 -71 -76 -71
l-25 0 23 33 c13 17 28 35 33 39 14 11 45 10 45 -1z m-1100 -213 l0 -113 63
112 c55 101 65 113 90 113 15 0 27 -3 27 -6 0 -3 -27 -54 -60 -114 l-60 -108
64 -136 65 -136 -32 0 c-31 0 -34 4 -81 106 -44 94 -51 104 -63 88 -8 -11 -13
-49 -13 -106 l0 -88 -30 0 -29 0 -3 246 c-2 135 -1 248 1 250 2 2 17 4 33 4
l28 0 0 -112z m412 12 c10 -52 30 -162 46 -245 l28 -150 -24 -3 c-29 -4 -39 8
-47 61 l-7 38 -61 -3 -62 -3 -9 -47 c-7 -44 -11 -48 -36 -48 l-27 0 18 98 c10
53 30 160 44 237 14 77 28 146 30 153 3 9 19 12 47 10 l43 -3 17 -95z m168
-150 l0 -250 -30 0 -30 0 0 250 0 250 30 0 30 0 0 -250z m257 226 c24 -21 28
-32 31 -93 4 -72 -14 -133 -40 -133 -6 0 -1 -12 13 -26 21 -23 25 -37 29 -125
l5 -100 -30 3 -30 3 -5 88 c-6 99 -17 117 -77 117 l-33 0 0 -105 0 -105 -30 0
-30 0 0 250 0 250 84 0 c75 0 88 -3 113 -24z m284 -5 l29 -29 0 -192 0 -192
-28 -28 c-58 -58 -158 -45 -187 24 -17 41 -21 338 -5 380 18 49 45 66 106 66
48 0 59 -4 85 -29z m249 19 c22 -12 55 -93 46 -115 -3 -10 -15 -15 -28 -13
-16 2 -24 12 -29 37 -12 56 -66 71 -95 26 -29 -44 -12 -84 65 -157 49 -47 73
-78 82 -106 33 -111 -54 -200 -155 -158 -40 17 -66 62 -66 116 0 27 3 30 30
30 27 0 30 -3 30 -31 0 -45 17 -69 47 -69 38 0 63 27 63 68 0 31 -10 45 -75
109 -81 80 -101 123 -89 190 11 57 43 83 104 83 28 0 60 -4 70 -10z"/>
<path d="M1162 756 c-30 -154 -32 -146 28 -146 l50 0 -6 33 c-16 84 -45 221
-47 223 -2 2 -13 -47 -25 -110z"/>
<path d="M1548 904 c-5 -4 -8 -45 -8 -91 l0 -83 45 0 c34 0 47 5 55 19 14 27
13 114 -3 134 -13 19 -77 34 -89 21z"/>
<path d="M1837 892 c-24 -27 -25 -326 -1 -360 20 -28 69 -30 84 -3 6 12 10 92
10 190 0 158 -1 171 -19 181 -29 15 -56 12 -74 -8z"/>
</g>
</svg>
