<?xml version="1.0" encoding="utf-8"?>
<!-- Generator: Adobe Illustrator 26.4.1, SVG Export Plug-In . SVG Version: 6.00 Build 0)  -->
<svg version="1.1" id="Capa_1" xmlns="http://www.w3.org/2000/svg" xmlns:xlink="http://www.w3.org/1999/xlink" x="0px" y="0px"
	 viewBox="0 0 512 512" style="enable-background:new 0 0 512 512;" xml:space="preserve">
<style type="text/css">
	.st0{fill:#0E5794;}
</style>
<path class="st0" d="M114.2,90.6v102.1c0,16.7,0,35.6-34.7,35.6v27.6v0.4v26.9c34.7,0,34.7,18.8,34.7,35.5v102.1
	c0,79.2,43.4,85,117.2,85V444c-34.7,0-47.7-5.1-47.7-24.9V318.1c0-23.3,1.6-47.7-18.8-62.5c20.4-14.7,18.8-39.1,18.8-62.5v-101
	c0-19.7,13-24.9,47.7-24.9V5.6C157.6,5.6,114.2,11.4,114.2,90.6z M309.5,87.3c-19,16-28.5,39.1-28.5,69.1v27h-39.6v56.3H281v204.1
	h86.1V239.6h53.4v-56.3h-53.4v-19.2c0-9.8,2.9-17.3,8.6-22.6c5.8-5.3,14-7.9,24.7-7.9c5.2,0,32,0.1,32,0.1V68.3
	c0,0-47.8-0.5-54.6-0.5C357,67.8,328.4,71.2,309.5,87.3z"/>
</svg>
